<?xml version="1.0" standalone="no"?>
<!DOCTYPE svg PUBLIC "-//W3C//DTD SVG 20010904//EN"
 "http://www.w3.org/TR/2001/REC-SVG-20010904/DTD/svg10.dtd">
<svg version="1.0" xmlns="http://www.w3.org/2000/svg"
 width="700.000000pt" height="700.000000pt" viewBox="0 0 700.000000 700.000000"
 preserveAspectRatio="xMidYMid meet">
<metadata>
Created by potrace 1.14, written by Peter Selinger 2001-2017
</metadata>
<g transform="translate(0.000000,700.000000) scale(0.100000,-0.100000)"
fill="#000000" stroke="none">
<path d="M4209 6927 c-55 -51 -184 -165 -539 -478 -96 -84 -180 -158 -186
-164 -9 -9 -88 -77 -158 -138 -12 -10 -39 -35 -61 -55 -22 -19 -60 -54 -85
-76 -25 -23 -76 -68 -114 -101 -38 -33 -74 -65 -80 -70 -6 -6 -47 -42 -90 -80
-44 -39 -87 -77 -96 -85 -9 -8 -32 -28 -51 -44 -19 -17 -75 -66 -124 -110 -50
-45 -124 -110 -165 -146 -40 -36 -78 -69 -84 -75 -6 -5 -65 -57 -131 -115 -66
-58 -161 -141 -210 -185 -50 -44 -123 -109 -164 -145 -41 -36 -79 -69 -85 -75
-6 -5 -49 -44 -96 -85 -47 -41 -96 -85 -110 -97 -28 -26 -40 -29 -40 -10 0 7
-5 18 -12 25 -7 7 -26 37 -43 67 -35 64 -475 807 -613 1035 -55 90 -91 143
-88 125 11 -56 14 -70 30 -135 8 -36 17 -76 20 -90 9 -45 35 -162 66 -299 16
-73 32 -143 34 -155 2 -11 10 -43 16 -71 6 -27 13 -59 16 -70 4 -20 11 -53 19
-90 4 -19 24 -110 75 -339 12 -54 23 -106 25 -115 9 -42 37 -168 41 -186 3
-11 7 -31 10 -45 7 -32 95 -431 139 -628 19 -84 37 -165 40 -180 7 -39 10 -52
44 -202 66 -292 116 -523 127 -580 3 -14 7 -33 10 -42 7 -22 10 -39 30 -140
10 -49 21 -88 26 -88 4 0 17 17 28 37 11 21 29 52 39 68 10 17 114 192 231
390 117 198 229 387 249 420 64 107 71 120 83 143 6 12 15 22 19 22 4 0 28
-37 54 -82 27 -46 58 -99 70 -118 24 -37 299 -501 332 -560 11 -19 59 -99 107
-178 47 -79 86 -145 86 -148 0 -2 -642 -4 -1427 -5 l-1428 0 95 -30 c52 -17
129 -41 170 -54 41 -13 156 -49 255 -80 99 -32 221 -70 270 -85 50 -16 142
-45 205 -65 63 -20 135 -42 160 -49 43 -13 275 -86 800 -252 129 -41 244 -77
255 -79 11 -3 58 -17 105 -33 47 -16 87 -29 90 -30 3 0 12 -3 20 -6 8 -2 251
-79 540 -169 353 -111 526 -160 528 -152 2 7 -44 90 -101 186 -252 422 -527
888 -527 893 0 3 289 7 642 8 l642 3 26 45 c194 327 524 885 565 953 l53 88
33 -53 c18 -29 37 -62 43 -73 11 -19 54 -92 411 -692 l162 -273 -649 -2 -650
-3 -98 -165 c-53 -91 -148 -250 -210 -355 -95 -160 -159 -269 -326 -552 -11
-17 -35 -57 -54 -90 -19 -32 -37 -62 -40 -68 -3 -5 -43 -73 -89 -150 -46 -77
-92 -153 -101 -170 -14 -25 -333 -562 -389 -657 -81 -136 -98 -168 -88 -168 7
0 33 20 58 43 25 23 77 69 114 102 38 33 114 100 169 149 56 49 132 116 170
150 38 34 79 70 92 81 12 11 35 31 50 45 111 96 600 529 714 631 36 32 74 66
86 76 12 10 54 47 95 83 88 79 173 154 214 189 78 69 211 187 221 196 6 5 42
37 79 70 38 33 80 71 94 84 14 13 50 44 80 70 30 25 64 55 76 66 11 11 54 49
95 85 41 36 80 69 86 75 15 14 132 118 169 149 17 14 32 26 35 26 4 -1 286
-474 390 -654 84 -146 375 -634 377 -632 3 3 -36 190 -71 339 -9 37 -18 81
-21 98 -3 17 -14 68 -25 114 -11 46 -22 98 -25 116 -3 18 -8 35 -10 39 -2 4
-7 21 -10 38 -4 23 -170 781 -200 912 -2 8 -22 98 -44 200 -22 102 -86 390
-141 640 -56 250 -104 466 -106 480 -3 14 -12 54 -20 90 -9 36 -18 76 -20 90
-16 86 -68 306 -74 313 -4 5 -34 -35 -65 -90 -51 -85 -292 -493 -507 -856 -39
-64 -73 -119 -77 -122 -4 -2 -82 120 -172 273 -90 152 -214 362 -276 466 -62
104 -113 190 -113 192 0 1 -20 35 -45 75 -25 40 -43 74 -41 76 2 2 644 4 1427
4 1331 1 1445 3 1359 24 -8 3 -73 23 -145 45 -71 23 -201 64 -287 91 -507 159
-643 201 -1208 379 -195 61 -425 133 -510 160 -85 26 -401 125 -703 220 -301
94 -555 172 -565 173 -15 1 -6 21 48 111 63 105 192 322 392 661 48 83 92 157
97 165 79 129 221 373 219 376 -2 1 -28 -21 -59 -49z m-669 -1349 c101 -171
395 -667 420 -708 68 -111 170 -287 170 -293 0 -3 -288 -6 -640 -6 -352 0
-639 3 -637 7 23 41 274 464 288 484 11 15 19 29 19 32 0 3 32 58 70 123 80
134 73 123 177 300 43 73 81 132 84 133 4 0 26 -33 49 -72z m-700 -1014 c0 -4
-66 -119 -147 -256 -82 -136 -156 -263 -167 -281 -18 -32 -215 -364 -287 -485
l-37 -62 -49 82 c-28 46 -115 193 -195 328 -80 135 -199 335 -264 445 -65 110
-122 208 -126 217 -7 17 25 18 632 18 352 0 640 -3 640 -6z"/>
</g>
</svg>
